<svg id="Layer_1" data-name="Layer 1" xmlns="http://www.w3.org/2000/svg" viewBox="0 0 800 725.96"><defs><style>.cls-1{fill:#ed2224;}.cls-2{fill:#fff;}</style></defs><title>mm_white</title><polygon class="cls-1" points="593.72 381.11 789.6 489.47 681.68 489.47 555.63 418.74 240.04 418.74 113.99 489.47 6.07 489.47 201.95 381.11 593.72 381.11"/><polygon class="cls-1" points="221.96 292.91 96.47 366.37 6.01 366.37 201.9 256.41 593.72 256.41 789.6 366.37 699.14 366.37 573.65 292.91 221.96 292.91"/><polygon class="cls-1" points="593.72 155.01 789.6 256.41 719.54 256.41 577.22 182.96 218.39 182.96 76.07 256.41 6.01 256.41 201.9 155.01 593.72 155.01"/><polygon class="cls-1" points="201.9 70.06 6.01 156.6 67.68 156.6 218.39 89.78 577.22 89.78 727.93 156.6 789.6 156.6 593.72 70.06 201.9 70.06"/><polygon class="cls-1" points="201.9 0 6.01 73.17 52.72 73.17 218.39 11.33 577.22 11.33 742.9 73.17 789.6 73.17 593.72 0 201.9 0"/><path class="cls-2" d="M31.27,623.12l23.63,69.46h.28l22.35-69.46h31.27v101H88V652.54h-.28L63,724.12H45.84L21.08,653.25H20.8v70.87H0v-101Z"/><path class="cls-2" d="M142.88,651v9.9h.28a28.59,28.59,0,0,1,9.55-8.77,25.87,25.87,0,0,1,12.8-3.11,29.46,29.46,0,0,1,12.66,2.69q5.73,2.69,8.7,9.48a31.16,31.16,0,0,1,8.84-8.49A23.53,23.53,0,0,1,209,649a39.13,39.13,0,0,1,10.75,1.41,21.72,21.72,0,0,1,8.49,4.53,20.79,20.79,0,0,1,5.52,8.14,33,33,0,0,1,2,12.09v48.95H215.6V682.67q0-3.68-.28-6.93a14.75,14.75,0,0,0-1.56-5.66,9.44,9.44,0,0,0-3.75-3.82,13.59,13.59,0,0,0-6.72-1.41,12.85,12.85,0,0,0-6.86,1.63,11.76,11.76,0,0,0-4.1,4.25,17,17,0,0,0-2,5.94,45.27,45.27,0,0,0-.5,6.72v40.74H169.76v-41q0-3.25-.14-6.43a18.13,18.13,0,0,0-1.2-5.87,9,9,0,0,0-3.54-4.31q-2.48-1.63-7.28-1.63a15.12,15.12,0,0,0-3.75.63,12.47,12.47,0,0,0-4.53,2.4,14,14,0,0,0-3.75,5.1,20.65,20.65,0,0,0-1.56,8.7v42.44H123.93V651Z"/><path class="cls-2" d="M298.22,724.12V713.94h-.42a22.6,22.6,0,0,1-9.9,9.2A29.23,29.23,0,0,1,275.44,726a35.17,35.17,0,0,1-13.23-2.12,19.06,19.06,0,0,1-8.13-6,23.51,23.51,0,0,1-4.17-9.48A58.92,58.92,0,0,1,248.7,696V651h20.09v41.31q0,9.05,2.83,13.51t10,4.46q8.2,0,11.88-4.88t3.68-16.06V651h20.09v73.14Z"/><path class="cls-2" d="M346.67,705.94a11.74,11.74,0,0,0,3.47,3.82A14.88,14.88,0,0,0,355,712a22.92,22.92,0,0,0,5.73.71,21.36,21.36,0,0,0,4.46-.5,15.17,15.17,0,0,0,4.24-1.55,9.68,9.68,0,0,0,3.18-2.83,7.42,7.42,0,0,0,1.27-4.46q0-4.52-6-6.79A120.92,120.92,0,0,0,351.12,692q-4.39-1-8.56-2.34a29.12,29.12,0,0,1-7.43-3.53,17.17,17.17,0,0,1-5.24-5.52,15.6,15.6,0,0,1-2-8.13q0-7.07,2.76-11.6a20.34,20.34,0,0,1,7.29-7.14,32,32,0,0,1,10.18-3.68,62.87,62.87,0,0,1,11.6-1.06,57.94,57.94,0,0,1,11.53,1.13,30.53,30.53,0,0,1,10,3.82,22.9,22.9,0,0,1,7.29,7.14A24,24,0,0,1,392,672.35h-19.1q-.42-5.8-4.39-7.85a20.08,20.08,0,0,0-9.34-2.05,34.84,34.84,0,0,0-3.68.21,12.37,12.37,0,0,0-3.61.92,7.46,7.46,0,0,0-2.76,2.05,5.42,5.42,0,0,0-1.13,3.61,5.5,5.5,0,0,0,2,4.39,15.28,15.28,0,0,0,5.16,2.76,64.59,64.59,0,0,0,7.28,1.91q4.1.85,8.35,1.84a85.47,85.47,0,0,1,8.56,2.41,28.26,28.26,0,0,1,7.43,3.75,18.17,18.17,0,0,1,5.23,5.8,17,17,0,0,1,2,8.56,22.22,22.22,0,0,1-10.47,19.95,31,31,0,0,1-10.68,4.17A62.22,62.22,0,0,1,360.6,726a60.69,60.69,0,0,1-12.45-1.27,32.85,32.85,0,0,1-10.82-4.25,24.26,24.26,0,0,1-7.78-7.85,24.57,24.57,0,0,1-3.32-12.24h19.1A11,11,0,0,0,346.67,705.94Z"/><path class="cls-2" d="M424.4,706.58q4.53,4.38,13,4.38a17.9,17.9,0,0,0,10.47-3q4.38-3,5.37-6.44h17.68q-4.24,13.16-13,18.82T436.71,726a41.78,41.78,0,0,1-15.56-2.76,32.31,32.31,0,0,1-11.74-7.85A35.24,35.24,0,0,1,402,703.19a44.5,44.5,0,0,1-2.62-15.56,42.63,42.63,0,0,1,2.69-15.28A35.36,35.36,0,0,1,421.5,652a37.85,37.85,0,0,1,15.21-3A34.76,34.76,0,0,1,453,652.61a32.47,32.47,0,0,1,11.39,9.69,39.82,39.82,0,0,1,6.44,13.87,51.7,51.7,0,0,1,1.42,16.27H419.45Q419.88,702.19,424.4,706.58Zm22.71-38.48q-3.61-4-11-4a17.48,17.48,0,0,0-8,1.63,15.18,15.18,0,0,0-5.09,4,14.78,14.78,0,0,0-2.69,5.09,23,23,0,0,0-.92,4.81h32.68Q450.72,672.07,447.11,668.1Z"/><path class="cls-2" d="M530.79,724.12V713.94h-.43a22.59,22.59,0,0,1-9.9,9.2A29.23,29.23,0,0,1,508,726a35.18,35.18,0,0,1-13.23-2.12,19,19,0,0,1-8.13-6,23.49,23.49,0,0,1-4.17-9.48,58.92,58.92,0,0,1-1.2-12.38V651h20.09v41.31q0,9.05,2.83,13.51t10,4.46q8.21,0,11.88-4.88t3.68-16.06V651h20.09v73.14Z"/><path class="cls-2" d="M581.86,651v9.9h.28a28.63,28.63,0,0,1,9.55-8.77,25.87,25.87,0,0,1,12.8-3.11,29.47,29.47,0,0,1,12.66,2.69q5.73,2.69,8.7,9.48a31.13,31.13,0,0,1,8.84-8.49A23.53,23.53,0,0,1,647.92,649a39.11,39.11,0,0,1,10.75,1.41,21.73,21.73,0,0,1,8.49,4.53,20.81,20.81,0,0,1,5.52,8.14,33,33,0,0,1,2,12.09v48.95H654.57V682.67q0-3.68-.28-6.93a14.8,14.8,0,0,0-1.56-5.66,9.46,9.46,0,0,0-3.75-3.82,13.6,13.6,0,0,0-6.72-1.41,12.86,12.86,0,0,0-6.86,1.63,11.78,11.78,0,0,0-4.1,4.25,17,17,0,0,0-2,5.94,45.63,45.63,0,0,0-.49,6.72v40.74H608.74v-41q0-3.25-.14-6.43a18.06,18.06,0,0,0-1.2-5.87,9,9,0,0,0-3.54-4.31q-2.48-1.63-7.29-1.63a15.13,15.13,0,0,0-3.75.63,12.49,12.49,0,0,0-4.53,2.4,14.09,14.09,0,0,0-3.75,5.1,20.65,20.65,0,0,0-1.55,8.7v42.44H562.9V651Z"/><path class="cls-2" d="M707.2,651v9.9h.28a28.63,28.63,0,0,1,9.55-8.77,25.87,25.87,0,0,1,12.8-3.11,29.47,29.47,0,0,1,12.66,2.69q5.73,2.69,8.7,9.48a31.13,31.13,0,0,1,8.84-8.49A23.53,23.53,0,0,1,773.26,649,39.11,39.11,0,0,1,784,650.42a21.73,21.73,0,0,1,8.49,4.53,20.81,20.81,0,0,1,5.52,8.14,33,33,0,0,1,2,12.09v48.95H779.91V682.67q0-3.68-.28-6.93a14.8,14.8,0,0,0-1.56-5.66,9.46,9.46,0,0,0-3.75-3.82,13.6,13.6,0,0,0-6.72-1.41,12.86,12.86,0,0,0-6.86,1.63,11.78,11.78,0,0,0-4.1,4.25,17,17,0,0,0-2,5.94,45.63,45.63,0,0,0-.49,6.72v40.74H734.08v-41q0-3.25-.14-6.43a18.06,18.06,0,0,0-1.2-5.87,9,9,0,0,0-3.54-4.31q-2.48-1.63-7.29-1.63a15.13,15.13,0,0,0-3.75.63,12.49,12.49,0,0,0-4.53,2.4,14.09,14.09,0,0,0-3.75,5.1,20.65,20.65,0,0,0-1.55,8.7v42.44H688.24V651Z"/></svg>