<svg id="Layer_1" data-name="Layer 1" xmlns="http://www.w3.org/2000/svg" viewBox="0 0 800 326.36"><defs><style>.cls-1{fill:#231f20;}</style></defs><title>nakamats_black</title><polygon class="cls-1" points="223.06 326.36 327.14 173.09 322.79 216.44 362.04 216.43 474.96 0 365.37 161.35 371.81 112.14 329.94 112.14 223.06 326.36"/><path class="cls-1" d="M405.84,216.44H423l-7.33-52H401.74l-31.95,52h17.14l6.09-9.91h11.41Zm-7.54-18.49,4-6.51.92,6.51Z"/><path class="cls-1" d="M515.91,216.44h17.15l-7.33-52H511.81l-31.95,52H497l6.09-9.91H514.5Zm-7.54-18.49,4-6.51.92,6.51Z"/><path class="cls-1" d="M689.91,216.44h17.15l-7.33-52H685.81l-31.95,52H671l6.09-9.91h11.4Zm-7.54-18.49,4-6.51.92,6.51Z"/><polygon class="cls-1" points="628.32 178.97 631.73 216.44 654.06 216.44 645.1 112.14 602.55 181.89 596.23 112.14 532.61 216.43 560.72 216.44 583.28 179.49 586.64 216.44 605.47 216.44 628.32 178.97"/><polygon class="cls-1" points="759.71 164.52 705.7 164.52 701.07 182 719.77 182 710.71 216.45 728.72 216.43 737.78 182 755.08 182 759.71 164.52"/><path class="cls-1" d="M763,201.52c4.76,2.88,12.9,5.06,14.06.26,1-4-8.92-10.52-8.92-10.52-13.72-8.83-11.4-15.43-11.05-17s4.28-10.5,20.65-9.95c15.59.53,22.29,9.6,22.29,9.6l-3.56,13.24s-8.1-12.86-15.3-13.07c-6.81-.2-6.87,4.38-6.87,4.38-.58,5,6.49,7.41,11.76,12.55,2.08,2,5.92,6.56,5.92,11s-1.37,14.92-19,14.92-24-12.17-24-12.17l3.81-13.24s5.27,6.94,10.24,10"/><polygon class="cls-1" points="505.53 164.43 483.97 164.43 459.98 182.28 486.42 129.25 465.82 129.26 422.38 216.44 442.96 216.43 447.31 207.7 459.86 198.37 462.41 216.44 477.76 216.44 473.75 188.05 505.53 164.43"/><path class="cls-1" d="M271.25,209.78a6.69,6.69,0,1,1-6.69-6.69,6.69,6.69,0,0,1,6.69,6.69"/><path class="cls-1" d="M236.42,175.91c1.93-49.29-35.5-46.62-35.5-46.62l0,0-.07,0-43.39,87.15H177.2v0H193c43.57-.64,43.43-40.52,43.43-40.52M195.5,202H184.38l26.37-53.24,0,0c4.29,1.37,11.8,8.53,11.51,23.35,0,0,1.55,29.63-26.78,29.85"/><path class="cls-1" d="M266.66,173.51l4.5-9-19.18,0-25.9,52,19.19,0,10.9-21.88c9-14.71,25.66-12.52,25.66-12.52l8.87-17.62s-17.7-.7-24,9.08"/><path class="cls-1" d="M411.62,121.41l-49.57,95H322.79l4.35-43.35L223.06,326.36,329.94,112.14h41.87l-6.44,49.2,30.07-44.28s8,2.54,16.17,4.34"/><path class="cls-1" d="M11.34,195.25c4.9,3.15,12.72,5.58,23.07,5.58,7.93,0,16.18-1.45,19.52-8.23,7.75-15.74-41.51-5.83-26.36-36.59,10-20.35,34.81-25.91,53.64-25.9,9,0,17.29,1.22,22.65,3.16l-10.2,17.44c-5.14-2.67-11.81-3.88-18.93-3.88-6.32,0-17,.48-20.69,7.87-6.74,13.68,42.17,4.5,27.14,35-10.8,21.92-34.16,27.84-55,27.84-8.74,0-19-1.22-26.18-3.64Z"/><path class="cls-1" d="M100.46,163.88h20L94.77,216.11h-20Zm24.23-8.51h-20l6.52-13.23h20Z"/><path class="cls-1" d="M162.92,178.34a22.39,22.39,0,0,0-6.49-.6c-9.35,0-17.59,6.11-22.63,16.34l-10.86,22.05h-20l25.72-52.23h18.25l-4.74,9.62h.22c6.71-6.61,13.79-10.82,22.48-10.82a41.23,41.23,0,0,1,6.5.61Z"/></svg>